<svg version="1" xmlns="http://www.w3.org/2000/svg" width="933.333" height="933.333" viewBox="0 0 700.000000 700.000000"><path d="M467.7 60.6c-.1.1-3.7.4-8.1.7-24.3 1.9-48.7 15.2-64.5 35.1-24.7 31-27.3 74.7-6.5 109.4l3.2 5.3-12.5 21.7c-6.9 11.9-13.5 23.5-14.8 25.7-8.6 15.3-16.8 29.1-17.4 29.8-.6.6-18.5-29.4-32.1-53.8-2.6-4.8-8.8-15.4-10.1-17.5-3.3-5.3-3.4-6.1-1.1-9.8 6.2-10.6 11.4-23.8 13.7-35.2 2.3-11.7.8-33.4-3.2-45.5-6-18.3-18.6-36-32.8-46.3-2.7-2-5.2-3.9-5.5-4.3-.3-.3-3.2-2-6.5-3.7-16.7-8.6-28.8-11.3-48-10.8-11.7.3-15.5.8-23 3.1-30.6 9.2-53.5 31.4-63.4 61.2-15.2 45.7 6.2 95.9 49.4 115.9 12.9 6 29.4 9.4 42.7 8.9l6.8-.2 2.8 4.6c1.6 2.5 4.8 8 7.2 12.1 2.4 4.1 6.3 10.8 8.7 14.8 2.4 4 4.3 7.5 4.3 7.7 0 .4 6.7 12.2 9.9 17.5.5.8 7.3 12.5 15 26s15.4 26.8 17 29.5l2.9 5.1-4.5 7.9c-2.5 4.4-5.4 9.6-6.5 11.5-3.1 5.4-11.2 19.2-12.5 21.5-.7 1.1-1.6 2.7-2 3.5-.4.8-2.9 5.3-5.6 10-28 48.4-52.4 106.6-58.1 138.5-.3 1.6-.8 4-1 5.2-.3 1.1-.8 4.3-1.2 7-.3 2.6-.8 5.7-1 6.8-.6 3-.5 23.6.1 26.5 3.5 17.6 9.7 28.7 20.2 35.9l3.2 2.2 3.9-6.8c2.2-3.8 8.3-14.5 13.6-23.8 5.3-9.4 10.1-17.7 10.6-18.5.5-.8 8-13.9 16.7-29s16.3-28.3 17-29.5c.7-1.1 1.8-3.1 2.5-4.5s2.7-4.8 4.5-7.7c1.8-2.9 3.3-5.4 3.3-5.7 0-.3 1.7-3.4 3.8-6.8 2.1-3.5 4.2-7 4.6-7.8.4-.8 1.2-2.4 1.9-3.5s3.9-6.7 7.2-12.5c3.3-5.7 6.5-11.2 7-12.2.6-.9 2.3-4.1 3.9-7 1.5-2.9 3.4-6 4.2-6.9.8-.8 1.4-1.8 1.4-2.2 0-1.1 7.1-12.7 7.8-12.7.4 0 1.6 1.7 2.8 3.8 1.1 2 13.6 23.9 27.9 48.7 14.2 24.7 32.8 57.1 41.3 72 8.5 14.8 18 31.3 21 36.5 3 5.2 6.4 11.1 7.4 13 11.6 20.6 13.1 22.9 15.2 21.8 2.9-1.5 13.6-12.6 13.6-14 0-.6.6-1.9 1.4-2.7 2.1-2.4 5.5-13.7 6.5-21.6 1.1-9.5.5-24.7-1.5-34.9-.2-1.2-.7-3.7-1-5.6-2.2-12.9-10-38.5-17.3-57-11.9-30-25-56-51.6-102.5-11.3-19.7-20.5-36.4-20.5-37 0-.5 1-2.6 2.2-4.5 2.7-4.4 12-20.7 16.1-28 1.6-3 3.4-6 3.8-6.6.5-.6 2-3.1 3.3-5.5 1.3-2.4 11.1-19.7 21.9-38.3l19.4-34 10.4-.1c5.7-.1 13.1-.8 16.4-1.5 3.3-.7 6.5-1.3 7-1.5 8-1.6 21.7-7.8 30.3-13.7 10.8-7.3 24.1-22.8 30.5-35.4 11.2-22.2 13-52.4 4.5-74.9-13.6-35.8-44.6-59.5-81.6-62.4-4.6-.4-8.4-.6-8.5-.5zM235 113c18.1 4.7 31.2 20.4 32.7 38.8 1 13.6-3.1 25.3-12.2 34.6-5.2 5.4-14.7 11-20.5 12.2-7.4 1.6-19.5.8-25.6-1.6-7.3-2.9-14.6-8.1-18.2-12.9-1.5-2-3-3.8-3.4-4.2-.4-.3-2-3.4-3.5-7-2.4-5.6-2.7-7.7-2.8-17.4 0-10.7.1-11.2 3.7-18.5 4-8.1 7-11.8 13.3-16.6 10.6-8.1 23.8-10.8 36.5-7.4zm243-.5c6.1.9 15.8 6.4 21.5 12.2 17.3 17.4 17.2 44.8-.2 62.2-22.6 22.5-59.4 14.2-71.4-16-2.5-6.5-3.2-19-1.4-25.8 3.3-12.5 11.6-23 22.7-28.4 4-2 9.1-3.9 11.3-4.3 2.2-.3 4.1-.7 4.3-.8.3-.4 8.8.2 13.2.9z"/></svg>