<?xml version="1.0" encoding="UTF-8" standalone="no"?>
<!-- Generator: Adobe Illustrator 19.0.0, SVG Export Plug-In . SVG Version: 6.00 Build 0)  -->

<svg
   xmlns:dc="http://purl.org/dc/elements/1.1/"
   xmlns:cc="http://creativecommons.org/ns#"
   xmlns:rdf="http://www.w3.org/1999/02/22-rdf-syntax-ns#"
   xmlns:svg="http://www.w3.org/2000/svg"
   xmlns="http://www.w3.org/2000/svg"
   xmlns:sodipodi="http://sodipodi.sourceforge.net/DTD/sodipodi-0.dtd"
   xmlns:inkscape="http://www.inkscape.org/namespaces/inkscape"
   version="1.1"
   id="Layer_1"
   x="0px"
   y="0px"
   viewBox="0 0 552.02999 552.02999"
   xml:space="preserve"
   sodipodi:docname="com.junrrein.PDFSlicer.svg"
   width="460.02499"
   height="460.02499"
   inkscape:version="0.92.3 (2405546, 2018-03-11)"><metadata
   id="metadata51"><rdf:RDF><cc:Work
       rdf:about=""><dc:format>image/svg+xml</dc:format><dc:type
         rdf:resource="http://purl.org/dc/dcmitype/StillImage" /><dc:title></dc:title></cc:Work></rdf:RDF></metadata><defs
   id="defs49" /><sodipodi:namedview
   pagecolor="#ffffff"
   bordercolor="#666666"
   borderopacity="1"
   objecttolerance="10"
   gridtolerance="10"
   guidetolerance="10"
   inkscape:pageopacity="0"
   inkscape:pageshadow="2"
   inkscape:window-width="1366"
   inkscape:window-height="702"
   id="namedview47"
   showgrid="false"
   scale-x="1.2"
   inkscape:zoom="0.5130156"
   inkscape:cx="327.47542"
   inkscape:cy="230.0125"
   inkscape:window-x="0"
   inkscape:window-y="0"
   inkscape:window-maximized="1"
   inkscape:current-layer="Layer_1" />
<path
   style="fill:#abcb57"
   d="m 407.08634,57.935549 c -17.237,-10.009 -37.326,-12.684 -56.564,-7.526 -19.296,5.17 -35.415,17.586 -45.388,34.96 -15.021,26.167001 -12.461,57.757011 3.938,80.910011 l -15.446,26.907 53.011,30.782 15.31,-26.67 c 2.549,0.268 5.112,0.409 7.683,0.409 6.452,0 12.948,-0.849 19.349,-2.563 19.296,-5.171 35.415,-17.587 45.39,-34.961 20.511,-35.733 8.273,-81.601011 -27.283,-102.248011 z m -7.409,82.333011 c -4.636,8.075 -12.111,13.842 -21.051,16.237 -8.883,2.378 -18.161,1.143 -26.125,-3.482 -16.576,-9.625 -22.263,-31.04101 -12.676,-47.74101 4.635,-8.075001 12.11,-13.841001 21.05,-16.236001 2.954,-0.792 5.95,-1.184 8.929,-1.184 5.979,0 11.88,1.578 17.196,4.665 16.577,9.625001 22.264,31.042001 12.677,47.741011 z"
   id="path2"
   inkscape:connector-curvature="0" />
<path
   style="fill:#d8d9dd"
   d="m 245.34234,400.42956 101.34,-176.537 -53.011,-30.782 -77.994,135.867 c -6.803,11.851 -86.856,147.044 -32.01,178.892 z"
   id="path4"
   inkscape:connector-curvature="0" />
<path
   style="opacity:0.3;fill:#5b5b5f;enable-background:new"
   d="m 407.08634,57.936549 c -17.236,-10.008 -37.324,-12.682 -56.562,-7.528 -19.296,5.17 -35.416,17.586 -45.391,34.962 -15.02,26.167001 -12.459,57.755011 3.94,80.908011 l -15.446,26.908 v 0 l -77.949,135.79 c -6.803,11.851 -86.856,147.044 -32.01,178.892 l 61.675,-107.439 101.34,-176.538 v 0 l 15.265,-26.593 c 2.548,0.268 5.111,0.409 7.682,0.409 6.452,0 12.948,-0.849 19.349,-2.563 19.296,-5.17 35.416,-17.586 45.391,-34.961 20.51,-35.734 8.272,-81.601011 -27.284,-102.247011 z m -7.409,82.332011 c -4.636,8.076 -12.112,13.843 -21.052,16.238 -8.883,2.379 -18.16,1.143 -26.124,-3.482 -16.575,-9.625 -22.263,-31.04101 -12.677,-47.74001 4.636,-8.076001 12.112,-13.843001 21.052,-16.238001 2.953,-0.791 5.95,-1.183 8.928,-1.183 5.979,0 11.88,1.577 17.196,4.665 16.577,9.625001 22.263,31.042001 12.677,47.740011 z"
   id="path6"
   inkscape:connector-curvature="0" />
<path
   style="fill:#abcb57"
   d="m 253.13034,193.18656 -15.446,-26.908 c 16.4,-23.152 18.96,-54.74201 3.939,-80.909011 -9.974,-17.374 -26.093,-29.79 -45.389,-34.961 -19.237,-5.153 -39.326,-2.48 -56.563,7.527 -35.556,20.647 -47.794002,66.515011 -27.282,102.247011 9.974,17.374 26.093,29.79 45.389,34.961 6.402,1.715 12.895,2.563 19.349,2.563 2.571,0 5.134,-0.141 7.683,-0.409 l 15.31,26.67 z m -84.999,-36.68 c -8.939,-2.395 -16.416,-8.161 -21.051,-16.237 -9.586,-16.69901 -3.899,-38.11601 12.677,-47.741011 5.316,-3.087 11.218,-4.665 17.196,-4.665 2.978,0 5.976,0.392 8.929,1.184 8.939,2.395 16.416,8.161 21.051,16.237001 9.586,16.699 3.899,38.11501 -12.678,47.74001 -7.966,4.624 -17.244,5.86 -26.124,3.482 z"
   id="path8"
   inkscape:connector-curvature="0" />
<path
   style="fill:#d8d9dd"
   d="m 301.41534,400.42956 -101.34,-176.537 53.011,-30.782 77.994,135.868 c 6.803,11.851 86.856,147.044 32.01,178.892 z"
   id="path10"
   inkscape:connector-curvature="0" />
<ellipse
   style="fill:#808083"
   cx="274.69629"
   cy="287.72852"
   rx="18.837"
   ry="18.945"
   id="ellipse12" />
<polygon
   style="opacity:0.4;fill:#5b5b5f;enable-background:new"
   points="237.495,249.629 241.041,246.104 234.856,239.883 241.041,233.663 237.495,230.137 231.33,236.337 225.165,230.137 221.619,233.663 227.804,239.883 221.619,246.104 225.165,249.629 231.33,243.429 "
   id="polygon14"
   transform="translate(43.366338,47.844549)" />
<g
   id="g16"
   transform="translate(0,-9.0398437e-6)">
</g>
<g
   id="g18"
   transform="translate(0,-9.0398437e-6)">
</g>
<g
   id="g20"
   transform="translate(0,-9.0398437e-6)">
</g>
<g
   id="g22"
   transform="translate(0,-9.0398437e-6)">
</g>
<g
   id="g24"
   transform="translate(0,-9.0398437e-6)">
</g>
<g
   id="g26"
   transform="translate(0,-9.0398437e-6)">
</g>
<g
   id="g28"
   transform="translate(0,-9.0398437e-6)">
</g>
<g
   id="g30"
   transform="translate(0,-9.0398437e-6)">
</g>
<g
   id="g32"
   transform="translate(0,-9.0398437e-6)">
</g>
<g
   id="g34"
   transform="translate(0,-9.0398437e-6)">
</g>
<g
   id="g36"
   transform="translate(0,-9.0398437e-6)">
</g>
<g
   id="g38"
   transform="translate(0,-9.0398437e-6)">
</g>
<g
   id="g40"
   transform="translate(0,-9.0398437e-6)">
</g>
<g
   id="g42"
   transform="translate(0,-9.0398437e-6)">
</g>
<g
   id="g44"
   transform="translate(0,-9.0398437e-6)">
</g>
</svg>