<?xml version="1.0" encoding="UTF-8" standalone="no"?>
<svg
   xmlns:sketch="http://www.bohemiancoding.com/sketch/ns"
   xmlns:dc="http://purl.org/dc/elements/1.1/"
   xmlns:cc="http://creativecommons.org/ns#"
   xmlns:rdf="http://www.w3.org/1999/02/22-rdf-syntax-ns#"
   xmlns:svg="http://www.w3.org/2000/svg"
   xmlns="http://www.w3.org/2000/svg"
   xmlns:sodipodi="http://sodipodi.sourceforge.net/DTD/sodipodi-0.dtd"
   xmlns:inkscape="http://www.inkscape.org/namespaces/inkscape"
   viewBox="0 0 56 36"
   version="1.1"
   x="0px"
   y="0px"
   id="svg18"
   sodipodi:docname="object-move-left-symbolic.svg"
   width="56"
   height="36"
   inkscape:version="0.92.3 (2405546, 2018-03-11)">
  <metadata
     id="metadata24">
    <rdf:RDF>
      <cc:Work
         rdf:about="">
        <dc:format>image/svg+xml</dc:format>
        <dc:type
           rdf:resource="http://purl.org/dc/dcmitype/StillImage" />
      </cc:Work>
    </rdf:RDF>
  </metadata>
  <defs
     id="defs22" />
  <sodipodi:namedview
     pagecolor="#ffffff"
     bordercolor="#666666"
     borderopacity="1"
     objecttolerance="10"
     gridtolerance="10"
     guidetolerance="10"
     inkscape:pageopacity="0"
     inkscape:pageshadow="2"
     inkscape:window-width="1366"
     inkscape:window-height="702"
     id="namedview20"
     showgrid="false"
     inkscape:zoom="5.2444444"
     inkscape:cx="8.3601695"
     inkscape:cy="7.7415254"
     inkscape:window-x="0"
     inkscape:window-y="0"
     inkscape:window-maximized="1"
     inkscape:current-layer="svg18" />
  <title
     id="title2">156 - Move to Left (Solid)</title>
  <desc
     id="desc4">Created with Sketch.</desc>
  <g
     sketch:type="MSPage"
     id="g12"
     style="fill:#474747;fill-rule:evenodd;stroke:none;stroke-width:1;fill-opacity:1">
    <g
       sketch:type="MSLayerGroup"
       id="g10"
       style="fill:#474747;fill-opacity:1">
      <path
         d="M 54,16 H 13.828 L 26.414,3.414 c 0.781,-0.781 0.781,-2.047 0,-2.828 -0.78,-0.781 -2.048,-0.781 -2.828,0 L 7.587,16.585 C 7.494,16.678 7.41,16.781 7.337,16.891 7.304,16.94 7.282,16.993 7.254,17.044 7.219,17.107 7.181,17.168 7.153,17.235 7.126,17.301 7.11,17.369 7.09,17.437 c -0.017,0.057 -0.039,0.112 -0.05,0.171 -0.052,0.259 -0.052,0.525 0,0.784 0.011,0.059 0.033,0.114 0.05,0.171 0.02,0.067 0.036,0.136 0.063,0.202 0.028,0.067 0.066,0.128 0.101,0.191 0.028,0.051 0.05,0.104 0.083,0.153 0.073,0.11 0.157,0.213 0.25,0.306 L 23.586,35.414 C 23.976,35.805 24.488,36 25,36 c 0.512,0 1.024,-0.195 1.414,-0.586 0.781,-0.781 0.781,-2.047 0,-2.828 L 13.828,20 H 54 c 1.104,0 2,-0.896 2,-2 0,-1.104 -0.896,-2 -2,-2"
         sketch:type="MSShapeGroup"
         id="path6"
         inkscape:connector-curvature="0"
         style="fill:#474747;fill-opacity:1" />
      <path
         d="M 2,0 C 0.896,0 0,0.895 0,2 v 32 c 0,1.104 0.896,2 2,2 1.104,0 2,-0.896 2,-2 V 2 C 4,0.895 3.104,0 2,0"
         sketch:type="MSShapeGroup"
         id="path8"
         inkscape:connector-curvature="0"
         style="fill:#474747;fill-opacity:1" />
    </g>
  </g>
</svg>
